<svg xmlns="http://www.w3.org/2000/svg" shape-rendering="geometricPrecision" text-rendering="geometricPrecision" image-rendering="optimizeQuality" fill-rule="evenodd" clip-rule="evenodd" viewBox="0 0 409 511.41"><g fill-rule="nonzero"><path fill="#411E2E" d="M60.31 486.14c-17.75-8.64-32.1-20.42-43.03-35.33-18.17-24.77-21.77-63.25-11.93-91.86 3.67-10.7 9.32-19.65 16.92-26.83 7.47-7.06 17.05-12.3 28.7-15.72 10.83-3.2 23.4-4.79 37.67-4.79 7.86 0 16.15.35 24.85 1.04 8.5.66 17.39 1.69 26.64 3.03 9.07 1.33 16.83 2.29 23.27 2.88 6.83.62 26.1 2.28 32.14-1.66-7.51-4.17-25.45-7.01-33.03-8.43l-.5-.11c-10.78-2.01-20.83-4.27-30.13-6.77-8.41-1.96-16.28-4.09-23.6-6.39-12.97-4.06-24.54-8.76-34.71-14.08-10.51-5.51-19.6-11.82-27.27-18.93-7.9-7.34-14.34-15.53-19.3-24.56-4.85-8.83-8.5-18.62-10.91-29.35-2.38-10.54-3.57-21.8-3.57-33.78 0-13.06 1.33-25.46 3.97-37.19 2.67-11.83 6.68-22.8 12.02-32.87 21.1-39.81 57.16-66 98.53-82.09 66.53-25.85 174.43-34.96 238.92 3.94 14.17 8.54 24.9 19.35 32.17 32.39C405.37 71.66 409 86.53 409 103.25c0 13.02-2.13 24.99-6.38 35.86-4.3 11.03-10.78 20.8-19.4 29.28-8.75 8.62-19.76 15.06-33.02 19.28-12.58 4.01-27.02 6.01-43.33 6.01-4.32 0-9.86-.13-16.59-.39-6.36-.23-12.62-.56-18.77-.97h-.05c-12.35-.82-24.82-1.82-37.39-2.98-11-1.02-27.42-2.48-38.05-.84-1.11.17-2.1.36-2.96.57l1.82 1.12c15.34 8.72 71.82 20.62 91.73 27.92 15.42 5.65 28.95 11.91 40.56 18.76 11.74 6.93 21.92 14.51 30.5 22.74 8.81 8.43 15.89 17.51 21.25 27.23 5.24 9.51 9.19 19.74 11.83 30.68 2.63 10.88 3.95 22.25 3.95 34.08 0 15.87-2.28 30.95-6.83 45.19-4.56 14.29-11.37 27.55-20.42 39.73-8.93 12.03-19.63 22.73-32.09 32.08-12.32 9.26-26.28 17.15-41.85 23.66-65.13 27.21-167.81 25.64-233.2-6.12z"/><path fill="#FF72B6" d="M187.25 497.23c-19.07 0-38.14-1.63-57.21-4.88s-36.41-8.67-52.01-16.25c-15.61-7.59-28.18-17.88-37.71-30.89-9.53-12.99-14.3-29.25-14.3-48.75 0-22.97 5.85-39.98 17.55-51.03 11.71-11.06 30.56-16.59 56.56-16.59 15.17 0 31.64 1.31 49.41 3.91 17.77 2.59 32.07 3.9 42.91 3.9 9.97 0 17.45-1.63 22.43-4.88s7.48-7.26 7.48-12.03-1.96-8.45-5.86-11.05c-3.9-2.6-9.96-4.98-18.2-7.15-8.23-2.17-19.28-4.55-33.15-7.15-30.35-5.64-54.84-13.33-73.47-23.08-18.64-9.75-32.18-22.32-40.63-37.7-8.45-15.39-12.68-34.14-12.68-56.24 0-24.27 4.77-45.4 14.3-63.39C62.21 96 74.88 80.83 90.71 68.47c15.82-12.35 33.47-22.31 52.98-29.9 19.5-7.58 39.44-13.11 59.81-16.58 20.37-3.46 39.66-5.2 57.86-5.2 40.74 0 73.14 7.26 97.2 21.78 24.05 14.52 36.08 36.08 36.08 64.68 0 22.54-7.16 40.86-21.46 54.94-14.3 14.09-36.4 21.13-66.31 21.13-9.97 0-21.46-.44-34.46-1.3-13-.87-25.35-1.84-37.05-2.93-11.7-1.08-21.02-1.62-27.96-1.62-10.4 0-18.1 1.19-23.08 3.57-4.98 2.39-7.48 5.96-7.48 10.73 0 3.46 1.52 6.82 4.55 10.08 3.04 3.25 8.57 6.39 16.59 9.43 8.01 3.03 19.39 6.28 34.13 9.75 36.84 8.67 66.09 19.39 87.77 32.18 21.67 12.78 37.16 27.63 46.48 44.53 9.32 16.9 13.98 36.19 13.98 57.86 0 29.04-8.13 54.5-24.39 76.39-16.25 21.88-38.89 38.89-67.94 51.03-29.04 12.14-62.62 18.21-100.76 18.21z"/><path fill="#fff" d="M81.94 150.87c-1.62 4.45-6.54 6.76-11 5.14-4.46-1.61-6.76-6.54-5.15-11 .75-2.08 1.66-3.99 2.68-5.75l.32-.51c.96-1.61 1.99-3.07 3.08-4.4 2.99-3.67 8.4-4.24 12.08-1.24a8.589 8.589 0 011.25 12.08c-.62.75-1.17 1.52-1.64 2.28l-.22.4a18.7 18.7 0 00-1.4 3zm23.15-31.03c-3.14 3.55-8.57 3.88-12.12.74-3.54-3.14-3.88-8.57-.74-12.11 11.36-12.87 26.3-23.91 42.67-32.71 17.68-9.51 37.19-16.49 55.78-20.42 4.65-.96 9.2 2.02 10.16 6.66.97 4.65-2.01 9.2-6.66 10.17-17.02 3.6-34.9 10-51.14 18.73-14.72 7.91-28.02 17.69-37.95 28.94z"/></g></svg>
